<?xml version="1.0" encoding="UTF-8" standalone="no"?><svg xmlns="http://www.w3.org/2000/svg" xmlns:xlink="http://www.w3.org/1999/xlink" fill="#ffffff" height="465.75" version="1" viewBox="0 0 793.5 465.75" width="793.5"><defs><clipPath id="b"><path d="M 244.832031 80.382812 L 253.652344 80.382812 L 253.652344 89.203125 L 244.832031 89.203125 Z M 244.832031 80.382812"/></clipPath><clipPath id="c"><path d="M 253.652344 88.46875 L 253.652344 81.117188 C 253.652344 80.714844 253.324219 80.382812 252.917969 80.382812 L 245.570312 80.382812 C 245.164062 80.382812 244.832031 80.714844 244.832031 81.117188 L 244.832031 88.46875 C 244.832031 88.875 245.164062 89.203125 245.570312 89.203125 L 252.917969 89.203125 C 253.324219 89.203125 253.652344 88.875 253.652344 88.46875"/></clipPath><clipPath id="d"><path d="M 388.128906 80.382812 L 397 80.382812 L 397 89.203125 L 388.128906 89.203125 Z M 388.128906 80.382812"/></clipPath><clipPath id="e"><path d="M 397.078125 88.46875 L 397.078125 81.117188 C 397.078125 80.714844 396.75 80.382812 396.34375 80.382812 L 388.996094 80.382812 C 388.589844 80.382812 388.257812 80.714844 388.257812 81.117188 L 388.257812 88.46875 C 388.257812 88.875 388.589844 89.203125 388.996094 89.203125 L 396.34375 89.203125 C 396.75 89.203125 397.078125 88.875 397.078125 88.46875"/></clipPath><clipPath id="f"><path d="M 108.203125 111.777344 L 718.1875 111.777344 L 718.1875 112.511719 L 108.203125 112.511719 Z M 108.203125 111.777344"/></clipPath><clipPath id="i"><path d="M 0.203125 0.777344 L 610.1875 0.777344 L 610.1875 1.511719 L 0.203125 1.511719 Z M 0.203125 0.777344"/></clipPath><clipPath id="h"><path d="M0 0H611V2H0z"/></clipPath><clipPath id="j"><path d="M 108.203125 174.316406 L 718.1875 174.316406 L 718.1875 175.050781 L 108.203125 175.050781 Z M 108.203125 174.316406"/></clipPath><clipPath id="m"><path d="M 0.203125 0.316406 L 610.1875 0.316406 L 610.1875 1.050781 L 0.203125 1.050781 Z M 0.203125 0.316406"/></clipPath><clipPath id="l"><path d="M0 0H611V2H0z"/></clipPath><clipPath id="n"><path d="M 108.203125 236.859375 L 718.1875 236.859375 L 718.1875 237.59375 L 108.203125 237.59375 Z M 108.203125 236.859375"/></clipPath><clipPath id="q"><path d="M 0.203125 0.859375 L 610.1875 0.859375 L 610.1875 1.59375 L 0.203125 1.59375 Z M 0.203125 0.859375"/></clipPath><clipPath id="p"><path d="M0 0H611V2H0z"/></clipPath><clipPath id="r"><path d="M 108.203125 299.398438 L 718.1875 299.398438 L 718.1875 300.132812 L 108.203125 300.132812 Z M 108.203125 299.398438"/></clipPath><clipPath id="u"><path d="M 0.203125 0.398438 L 610.1875 0.398438 L 610.1875 1.132812 L 0.203125 1.132812 Z M 0.203125 0.398438"/></clipPath><clipPath id="t"><path d="M0 0H611V2H0z"/></clipPath><clipPath id="v"><path d="M 108.203125 361.9375 L 718.1875 361.9375 L 718.1875 362.671875 L 108.203125 362.671875 Z M 108.203125 361.9375"/></clipPath><clipPath id="y"><path d="M 0.203125 0.9375 L 610.1875 0.9375 L 610.1875 1.671875 L 0.203125 1.671875 Z M 0.203125 0.9375"/></clipPath><clipPath id="x"><path d="M0 0H611V2H0z"/></clipPath><clipPath id="z"><path d="M 108.203125 218 L 180.953125 218 L 180.953125 362.425781 L 108.203125 362.425781 Z M 108.203125 218"/></clipPath><clipPath id="A"><path d="M 108.203125 362.304688 L 108.203125 231.476562 C 108.203125 224.085938 114.191406 218.097656 121.582031 218.097656 L 167.148438 218.097656 C 170.695312 218.097656 174.101562 219.503906 176.609375 222.015625 C 179.117188 224.523438 180.527344 227.925781 180.527344 231.476562 L 180.527344 362.304688 L 108.203125 362.304688"/></clipPath><clipPath id="B"><path d="M 197.121094 274.242188 L 270.605469 274.242188 L 270.605469 362.425781 L 197.121094 362.425781 Z M 197.121094 274.242188"/></clipPath><clipPath id="C"><path d="M 197.8125 362.304688 L 197.8125 287.761719 C 197.8125 280.371094 203.800781 274.382812 211.191406 274.382812 L 256.757812 274.382812 C 260.304688 274.382812 263.710938 275.792969 266.21875 278.300781 C 268.726562 280.808594 270.136719 284.214844 270.136719 287.761719 L 270.136719 362.304688 L 197.8125 362.304688"/></clipPath><clipPath id="D"><path d="M 287 236.765625 L 360 236.765625 L 360 362.425781 L 287 362.425781 Z M 287 236.765625"/></clipPath><clipPath id="E"><path d="M 287.421875 362.304688 L 287.421875 250.238281 C 287.421875 242.847656 293.410156 236.859375 300.800781 236.859375 L 346.367188 236.859375 C 349.917969 236.859375 353.320312 238.269531 355.828125 240.777344 C 358.339844 243.285156 359.746094 246.691406 359.746094 250.238281 L 359.746094 362.304688 L 287.421875 362.304688"/></clipPath><clipPath id="F"><path d="M 377 236.765625 L 449.910156 236.765625 L 449.910156 362.425781 L 377 362.425781 Z M 377 236.765625"/></clipPath><clipPath id="G"><path d="M 377.03125 362.304688 L 377.03125 250.238281 C 377.03125 246.691406 378.441406 243.285156 380.949219 240.777344 C 383.460938 238.269531 386.863281 236.859375 390.410156 236.859375 L 435.976562 236.859375 C 439.527344 236.859375 442.929688 238.269531 445.4375 240.777344 C 447.949219 243.285156 449.359375 246.691406 449.359375 250.238281 L 449.359375 362.304688 L 377.03125 362.304688"/></clipPath><clipPath id="H"><path d="M 466.078125 161.808594 L 539 161.808594 L 539 362.425781 L 466.078125 362.425781 Z M 466.078125 161.808594"/></clipPath><clipPath id="I"><path d="M 466.640625 362.304688 L 466.640625 175.191406 C 466.640625 171.640625 468.050781 168.238281 470.558594 165.730469 C 473.070312 163.21875 476.472656 161.808594 480.019531 161.808594 L 525.585938 161.808594 C 529.136719 161.808594 532.539062 163.21875 535.046875 165.730469 C 537.558594 168.238281 538.96875 171.640625 538.96875 175.191406 L 538.96875 362.304688 L 466.640625 362.304688"/></clipPath><clipPath id="J"><path d="M 556 236.765625 L 629 236.765625 L 629 362.425781 L 556 362.425781 Z M 556 236.765625"/></clipPath><clipPath id="K"><path d="M 556.25 362.304688 L 556.25 250.238281 C 556.25 246.691406 557.660156 243.285156 560.167969 240.777344 C 562.679688 238.269531 566.082031 236.859375 569.628906 236.859375 L 615.195312 236.859375 C 618.746094 236.859375 622.148438 238.269531 624.65625 240.777344 C 627.167969 243.285156 628.578125 246.691406 628.578125 250.238281 L 628.578125 362.304688 L 556.25 362.304688"/></clipPath><clipPath id="L"><path d="M 645.382812 299.226562 L 718.867188 299.226562 L 718.867188 362.425781 L 645.382812 362.425781 Z M 645.382812 299.226562"/></clipPath><clipPath id="M"><path d="M 645.859375 362.304688 L 645.859375 312.777344 C 645.859375 305.390625 651.851562 299.398438 659.242188 299.398438 L 704.804688 299.398438 C 712.195312 299.398438 718.1875 305.390625 718.1875 312.777344 L 718.1875 362.304688 L 645.859375 362.304688"/></clipPath><clipPath id="N"><path d="M 108.203125 236.90625 L 180.527344 236.90625 L 180.527344 362.304688 L 108.203125 362.304688 Z M 108.203125 236.90625"/></clipPath><clipPath id="O"><path d="M 197.121094 280.121094 L 270.605469 280.121094 L 270.605469 362.425781 L 197.121094 362.425781 Z M 197.121094 280.121094"/></clipPath><clipPath id="P"><path d="M 197.8125 362.304688 L 197.8125 287.761719 C 197.8125 285.25 198.519531 282.789062 199.851562 280.664062 L 268.097656 280.664062 C 269.429688 282.789062 270.136719 285.25 270.136719 287.761719 L 270.136719 362.304688 L 197.8125 362.304688"/></clipPath><clipPath id="Q"><path d="M 287.421875 268.21875 L 359.746094 268.21875 L 359.746094 362.304688 L 287.421875 362.304688 Z M 287.421875 268.21875"/></clipPath><clipPath id="R"><path d="M 377.03125 255.675781 L 449.359375 255.675781 L 449.359375 362.304688 L 377.03125 362.304688 Z M 377.03125 255.675781"/></clipPath><clipPath id="S"><path d="M 466.078125 174.300781 L 539 174.300781 L 539 362.425781 L 466.078125 362.425781 Z M 466.078125 174.300781"/></clipPath><clipPath id="T"><path d="M 466.640625 362.304688 L 466.640625 175.191406 C 466.640625 174.90625 466.648438 174.625 466.667969 174.339844 L 538.941406 174.339844 C 538.957031 174.625 538.96875 174.90625 538.96875 175.191406 L 538.96875 362.304688 L 466.640625 362.304688"/></clipPath><clipPath id="U"><path d="M 556 249.257812 L 629 249.257812 L 629 362.425781 L 556 362.425781 Z M 556 249.257812"/></clipPath><clipPath id="V"><path d="M 556.25 362.304688 L 556.25 250.238281 C 556.25 249.960938 556.257812 249.679688 556.277344 249.402344 L 628.550781 249.402344 C 628.566406 249.679688 628.578125 249.960938 628.578125 250.238281 L 628.578125 362.304688 L 556.25 362.304688"/></clipPath><clipPath id="W"><path d="M 645.382812 299.226562 L 718.867188 299.226562 L 718.867188 362.425781 L 645.382812 362.425781 Z M 645.382812 299.226562"/></clipPath><clipPath id="X"><path d="M 645.859375 362.304688 L 645.859375 312.777344 C 645.859375 305.390625 651.851562 299.398438 659.242188 299.398438 L 704.804688 299.398438 C 712.195312 299.398438 718.1875 305.390625 718.1875 312.777344 L 718.1875 362.304688 L 645.859375 362.304688"/></clipPath><mask id="g"><g filter="url(#a)"><path d="M-79.35 -46.575H872.85V512.3249999999999H-79.35z" fill-opacity="0.247"/></g></mask><mask id="k"><g filter="url(#a)"><path d="M-79.35 -46.575H872.85V512.3249999999999H-79.35z" fill-opacity="0.247"/></g></mask><mask id="o"><g filter="url(#a)"><path d="M-79.35 -46.575H872.85V512.3249999999999H-79.35z" fill-opacity="0.247"/></g></mask><mask id="s"><g filter="url(#a)"><path d="M-79.35 -46.575H872.85V512.3249999999999H-79.35z" fill-opacity="0.247"/></g></mask><mask id="w"><g filter="url(#a)"><path d="M-79.35 -46.575H872.85V512.3249999999999H-79.35z" fill-opacity="0.6"/></g></mask><filter height="100%" id="a" width="100%" x="0%" y="0%"><feColorMatrix color-interpolation-filters="sRGB" values="0 0 0 0 1 0 0 0 0 1 0 0 0 0 1 0 0 0 1 0"/></filter></defs><g><g><g><path d="M 5.8125 -11.734375 C 6.894531 -11.734375 7.847656 -11.507812 8.671875 -11.0625 C 9.492188 -10.613281 10.128906 -9.945312 10.578125 -9.0625 C 11.023438 -8.175781 11.25 -7.113281 11.25 -5.875 C 11.25 -4.625 11.019531 -3.554688 10.5625 -2.671875 C 10.101562 -1.796875 9.460938 -1.128906 8.640625 -0.671875 C 7.816406 -0.222656 6.863281 0 5.78125 0 L 1.359375 0 L 1.359375 -5.125 L 0.53125 -5.125 L 0.53125 -6.875 L 1.359375 -6.875 L 1.359375 -11.734375 Z M 5.296875 -2.34375 C 5.847656 -2.34375 6.347656 -2.414062 6.796875 -2.5625 C 7.253906 -2.71875 7.644531 -3.054688 7.96875 -3.578125 C 8.300781 -4.097656 8.46875 -4.863281 8.46875 -5.875 C 8.46875 -6.894531 8.300781 -7.664062 7.96875 -8.1875 C 7.644531 -8.707031 7.253906 -9.046875 6.796875 -9.203125 C 6.347656 -9.359375 5.847656 -9.4375 5.296875 -9.4375 L 3.90625 -9.4375 L 3.90625 -6.875 L 5.453125 -6.875 L 5.453125 -5.125 L 3.90625 -5.125 L 3.90625 -2.34375 Z M 5.296875 -2.34375" transform="translate(266.317 91.774)"/></g></g></g><g><g><g><path d="M 3.96875 0.15625 C 2.875 0.15625 2.023438 -0.257812 1.421875 -1.09375 C 0.828125 -1.925781 0.53125 -3.039062 0.53125 -4.4375 C 0.53125 -5.84375 0.835938 -6.960938 1.453125 -7.796875 C 2.066406 -8.628906 2.914062 -9.046875 4 -9.046875 C 4.75 -9.046875 5.320312 -8.878906 5.71875 -8.546875 C 6.125 -8.222656 6.40625 -7.890625 6.5625 -7.546875 L 6.703125 -7.546875 L 6.703125 -8.859375 L 9.328125 -8.859375 L 9.328125 0 L 6.703125 0 L 6.703125 -1.421875 L 6.5625 -1.421875 C 6.394531 -1.066406 6.109375 -0.710938 5.703125 -0.359375 C 5.296875 -0.015625 4.71875 0.15625 3.96875 0.15625 Z M 4.953125 -1.9375 C 5.546875 -1.9375 5.988281 -2.1875 6.28125 -2.6875 C 6.570312 -3.1875 6.71875 -3.773438 6.71875 -4.453125 C 6.71875 -5.117188 6.570312 -5.703125 6.28125 -6.203125 C 5.988281 -6.703125 5.546875 -6.953125 4.953125 -6.953125 C 4.335938 -6.953125 3.890625 -6.707031 3.609375 -6.21875 C 3.328125 -5.738281 3.1875 -5.15625 3.1875 -4.46875 C 3.1875 -3.78125 3.328125 -3.1875 3.609375 -2.6875 C 3.890625 -2.1875 4.335938 -1.9375 4.953125 -1.9375 Z M 5.09375 4.203125 C 4.707031 4.203125 4.390625 4.070312 4.140625 3.8125 C 3.890625 3.5625 3.765625 3.25 3.765625 2.875 C 3.765625 2.507812 3.890625 2.203125 4.140625 1.953125 C 4.390625 1.703125 4.707031 1.578125 5.09375 1.578125 C 5.457031 1.578125 5.765625 1.703125 6.015625 1.953125 C 6.273438 2.210938 6.40625 2.519531 6.40625 2.875 C 6.40625 3.25 6.273438 3.5625 6.015625 3.8125 C 5.765625 4.070312 5.457031 4.203125 5.09375 4.203125 Z M 5.09375 4.203125" transform="translate(278.16 91.774)"/></g></g></g><g><g><g><path d="M 4.46875 -6.828125 L 4.46875 -3.28125 C 4.46875 -2.894531 4.488281 -2.609375 4.53125 -2.421875 C 4.570312 -2.234375 4.679688 -2.082031 4.859375 -1.96875 C 5.046875 -1.863281 5.347656 -1.8125 5.765625 -1.8125 C 5.972656 -1.8125 6.191406 -1.832031 6.421875 -1.875 L 6.421875 -0.0625 C 6.304688 -0.0390625 6.082031 -0.0195312 5.75 0 C 5.414062 0.03125 5.078125 0.046875 4.734375 0.046875 C 3.867188 0.046875 3.222656 -0.078125 2.796875 -0.328125 C 2.378906 -0.585938 2.117188 -0.898438 2.015625 -1.265625 C 1.921875 -1.640625 1.875 -2.125 1.875 -2.71875 L 1.875 -6.828125 L 0.453125 -6.828125 L 0.453125 -8.859375 L 1.875 -8.859375 L 1.875 -11.71875 L 4.46875 -11.71875 L 4.46875 -8.859375 L 6.421875 -8.859375 L 6.421875 -6.828125 Z M 4.46875 -6.828125" transform="translate(288.48 91.774)"/></g></g></g><g><g><g><path d="M 5.375 1.265625 C 5.226562 1.671875 5.0625 2.039062 4.875 2.375 C 4.695312 2.707031 4.367188 3.035156 3.890625 3.359375 C 3.410156 3.691406 2.78125 3.859375 2 3.859375 C 1.664062 3.859375 1.378906 3.828125 1.140625 3.765625 C 0.898438 3.710938 0.75 3.679688 0.6875 3.671875 L 0.6875 1.859375 C 0.957031 1.898438 1.191406 1.921875 1.390625 1.921875 C 1.910156 1.921875 2.296875 1.800781 2.546875 1.5625 C 2.796875 1.332031 3.015625 0.972656 3.203125 0.484375 L 3.453125 -0.140625 L 0.296875 -8.859375 L 2.9375 -8.859375 L 4.671875 -3 L 4.78125 -3 L 6.5625 -8.859375 L 9.203125 -8.859375 Z M 5.375 1.265625" transform="translate(299.537 91.774)"/></g></g></g><g><g><g><path d="M 4.875 0.15625 C 3.9375 0.15625 3.144531 -0.0546875 2.5 -0.484375 C 1.863281 -0.921875 1.390625 -1.488281 1.078125 -2.1875 C 0.773438 -2.882812 0.625 -3.632812 0.625 -4.4375 C 0.625 -5.238281 0.773438 -5.988281 1.078125 -6.6875 C 1.390625 -7.382812 1.863281 -7.953125 2.5 -8.390625 C 3.144531 -8.828125 3.945312 -9.046875 4.90625 -9.046875 C 6.15625 -9.046875 7.148438 -8.648438 7.890625 -7.859375 C 8.628906 -7.078125 9 -5.9375 9 -4.4375 L 9 -3.71875 L 3.125 -3.71875 L 3.125 -3.578125 C 3.125 -3.117188 3.285156 -2.722656 3.609375 -2.390625 C 3.929688 -2.066406 4.335938 -1.90625 4.828125 -1.90625 C 5.203125 -1.90625 5.523438 -1.988281 5.796875 -2.15625 C 6.066406 -2.332031 6.253906 -2.566406 6.359375 -2.859375 L 8.921875 -2.859375 C 8.703125 -1.984375 8.242188 -1.257812 7.546875 -0.6875 C 6.847656 -0.125 5.957031 0.15625 4.875 0.15625 Z M 6.5 -5.390625 C 6.488281 -5.992188 6.332031 -6.441406 6.03125 -6.734375 C 5.738281 -7.023438 5.347656 -7.171875 4.859375 -7.171875 C 4.359375 -7.171875 3.957031 -7.015625 3.65625 -6.703125 C 3.363281 -6.390625 3.210938 -5.953125 3.203125 -5.390625 Z M 3.984375 -12.625 L 5.859375 -12.625 L 8.328125 -9.90625 L 5.984375 -9.90625 L 4.9375 -11.0625 L 4.875 -11.0625 L 3.875 -9.90625 L 1.546875 -9.90625 Z M 3.984375 -12.625" transform="translate(308.7 91.774)"/></g></g></g><g><g><g><path d="M 9.03125 0 L 6.40625 0 L 6.40625 -1.328125 L 6.28125 -1.328125 C 6.09375 -0.910156 5.789062 -0.554688 5.375 -0.265625 C 4.957031 0.0234375 4.457031 0.171875 3.875 0.171875 C 2.71875 0.171875 1.925781 -0.195312 1.5 -0.9375 C 1.082031 -1.675781 0.875 -2.5 0.875 -3.40625 L 0.875 -8.859375 L 3.46875 -8.859375 L 3.46875 -3.828125 C 3.46875 -3.273438 3.582031 -2.828125 3.8125 -2.484375 C 4.050781 -2.140625 4.414062 -1.96875 4.90625 -1.96875 C 5.414062 -1.96875 5.789062 -2.144531 6.03125 -2.5 C 6.28125 -2.851562 6.40625 -3.296875 6.40625 -3.828125 L 6.40625 -8.859375 L 9.03125 -8.859375 Z M 9.03125 0" transform="translate(318.316 91.774)"/></g></g></g><g><g><g><path d="M 4.890625 0.15625 C 3.941406 0.15625 3.144531 -0.0625 2.5 -0.5 C 1.863281 -0.9375 1.390625 -1.503906 1.078125 -2.203125 C 0.773438 -2.898438 0.625 -3.648438 0.625 -4.453125 C 0.625 -5.253906 0.773438 -6.003906 1.078125 -6.703125 C 1.390625 -7.398438 1.863281 -7.960938 2.5 -8.390625 C 3.144531 -8.828125 3.941406 -9.046875 4.890625 -9.046875 C 6.078125 -9.046875 7.019531 -8.703125 7.71875 -8.015625 C 8.414062 -7.335938 8.84375 -6.472656 9 -5.421875 L 6.453125 -5.421875 C 6.378906 -5.878906 6.210938 -6.25 5.953125 -6.53125 C 5.703125 -6.8125 5.359375 -6.953125 4.921875 -6.953125 C 4.296875 -6.953125 3.847656 -6.707031 3.578125 -6.21875 C 3.316406 -5.738281 3.1875 -5.148438 3.1875 -4.453125 C 3.1875 -3.753906 3.316406 -3.160156 3.578125 -2.671875 C 3.847656 -2.179688 4.296875 -1.9375 4.921875 -1.9375 C 5.359375 -1.9375 5.703125 -2.078125 5.953125 -2.359375 C 6.210938 -2.648438 6.378906 -3.019531 6.453125 -3.46875 L 9 -3.46875 C 8.84375 -2.414062 8.414062 -1.546875 7.71875 -0.859375 C 7.03125 -0.179688 6.085938 0.15625 4.890625 0.15625 Z M 4.890625 0.15625" transform="translate(332.02 91.774)"/></g></g></g><g><g><g><path d="M 3.96875 0.15625 C 2.875 0.15625 2.023438 -0.257812 1.421875 -1.09375 C 0.828125 -1.925781 0.53125 -3.039062 0.53125 -4.4375 C 0.53125 -5.84375 0.835938 -6.960938 1.453125 -7.796875 C 2.066406 -8.628906 2.914062 -9.046875 4 -9.046875 C 4.75 -9.046875 5.320312 -8.878906 5.71875 -8.546875 C 6.125 -8.222656 6.40625 -7.890625 6.5625 -7.546875 L 6.703125 -7.546875 L 6.703125 -8.859375 L 9.328125 -8.859375 L 9.328125 0 L 6.703125 0 L 6.703125 -1.421875 L 6.5625 -1.421875 C 6.394531 -1.066406 6.109375 -0.710938 5.703125 -0.359375 C 5.296875 -0.015625 4.71875 0.15625 3.96875 0.15625 Z M 4.953125 -1.9375 C 5.546875 -1.9375 5.988281 -2.1875 6.28125 -2.6875 C 6.570312 -3.1875 6.71875 -3.773438 6.71875 -4.453125 C 6.71875 -5.117188 6.570312 -5.703125 6.28125 -6.203125 C 5.988281 -6.703125 5.546875 -6.953125 4.953125 -6.953125 C 4.335938 -6.953125 3.890625 -6.707031 3.609375 -6.21875 C 3.328125 -5.738281 3.1875 -5.15625 3.1875 -4.46875 C 3.1875 -3.78125 3.328125 -3.1875 3.609375 -2.6875 C 3.890625 -2.1875 4.335938 -1.9375 4.953125 -1.9375 Z M 4.234375 -12.625 L 6.109375 -12.625 L 8.578125 -9.90625 L 6.234375 -9.90625 L 5.1875 -11.0625 L 5.125 -11.0625 L 4.125 -9.90625 L 1.796875 -9.90625 Z M 5.515625 -15.453125 L 8.078125 -15.453125 L 9.765625 -12.09375 L 7.703125 -12.078125 Z M 5.515625 -15.453125" transform="translate(341.602 91.774)"/></g></g></g><g><g><g><path d="M 9.03125 0 L 6.40625 0 L 6.40625 -1.328125 L 6.28125 -1.328125 C 6.09375 -0.910156 5.789062 -0.554688 5.375 -0.265625 C 4.957031 0.0234375 4.457031 0.171875 3.875 0.171875 C 2.71875 0.171875 1.925781 -0.195312 1.5 -0.9375 C 1.082031 -1.675781 0.875 -2.5 0.875 -3.40625 L 0.875 -8.859375 L 3.46875 -8.859375 L 3.46875 -3.828125 C 3.46875 -3.273438 3.582031 -2.828125 3.8125 -2.484375 C 4.050781 -2.140625 4.414062 -1.96875 4.90625 -1.96875 C 5.414062 -1.96875 5.789062 -2.144531 6.03125 -2.5 C 6.28125 -2.851562 6.40625 -3.296875 6.40625 -3.828125 L 6.40625 -8.859375 L 9.03125 -8.859375 Z M 9.03125 0" transform="translate(351.922 91.774)"/></g></g></g><g><g><g><path d="M 0.859375 -11.71875 L 3.4375 -11.71875 L 3.4375 -7.125 L 3.515625 -7.125 L 7.4375 -11.71875 L 10.40625 -11.71875 L 6.203125 -6.765625 L 10.40625 0 L 7.46875 0 L 4.578125 -4.96875 L 3.4375 -3.71875 L 3.4375 0 L 0.859375 0 Z M 0.859375 -11.71875" transform="translate(405.896 91.774)"/></g></g></g><g><g><g><path d="M 0.875 -12.421875 L 3.484375 -12.421875 L 3.484375 -7.578125 L 3.625 -7.578125 C 3.8125 -7.984375 4.117188 -8.328125 4.546875 -8.609375 C 4.972656 -8.898438 5.492188 -9.046875 6.109375 -9.046875 C 7.273438 -9.046875 8.082031 -8.675781 8.53125 -7.9375 C 8.976562 -7.207031 9.203125 -6.394531 9.203125 -5.5 L 9.203125 0 L 6.578125 0 L 6.578125 -5.046875 C 6.578125 -5.617188 6.445312 -6.070312 6.1875 -6.40625 C 5.9375 -6.75 5.554688 -6.921875 5.046875 -6.921875 C 4.523438 -6.921875 4.132812 -6.742188 3.875 -6.390625 C 3.613281 -6.046875 3.484375 -5.597656 3.484375 -5.046875 L 3.484375 0 L 0.875 0 Z M 0.875 -12.421875" transform="translate(417.003 91.774)"/></g></g></g><g><g><g><path d="M 4.890625 0.15625 C 3.953125 0.15625 3.160156 -0.0507812 2.515625 -0.46875 C 1.878906 -0.882812 1.40625 -1.4375 1.09375 -2.125 C 0.78125 -2.820312 0.625 -3.59375 0.625 -4.4375 C 0.625 -5.269531 0.78125 -6.035156 1.09375 -6.734375 C 1.40625 -7.429688 1.878906 -7.988281 2.515625 -8.40625 C 3.160156 -8.832031 3.953125 -9.046875 4.890625 -9.046875 C 5.828125 -9.046875 6.613281 -8.835938 7.25 -8.421875 C 7.894531 -8.015625 8.375 -7.460938 8.6875 -6.765625 C 9 -6.066406 9.15625 -5.296875 9.15625 -4.453125 C 9.15625 -3.617188 9 -2.851562 8.6875 -2.15625 C 8.375 -1.457031 7.894531 -0.894531 7.25 -0.46875 C 6.613281 -0.0507812 5.828125 0.15625 4.890625 0.15625 Z M 4.890625 -1.9375 C 5.472656 -1.9375 5.898438 -2.175781 6.171875 -2.65625 C 6.453125 -3.144531 6.59375 -3.75 6.59375 -4.46875 C 6.59375 -5.195312 6.453125 -5.789062 6.171875 -6.25 C 5.898438 -6.71875 5.472656 -6.953125 4.890625 -6.953125 C 4.304688 -6.953125 3.875 -6.71875 3.59375 -6.25 C 3.320312 -5.78125 3.1875 -5.1875 3.1875 -4.46875 C 3.1875 -3.75 3.328125 -3.144531 3.609375 -2.65625 C 3.890625 -2.175781 4.316406 -1.9375 4.890625 -1.9375 Z M 3.96875 -12.625 L 5.84375 -12.625 L 8.3125 -9.90625 L 5.96875 -9.90625 L 4.921875 -11.0625 L 4.859375 -11.0625 L 3.859375 -9.90625 L 1.53125 -9.90625 Z M 3.96875 -12.625" transform="translate(427.02 91.774)"/></g></g></g><g><g><g><path d="M 0.875 -8.859375 L 3.484375 -8.859375 L 3.484375 -7.578125 L 3.625 -7.578125 C 3.8125 -7.984375 4.117188 -8.328125 4.546875 -8.609375 C 4.972656 -8.898438 5.492188 -9.046875 6.109375 -9.046875 C 7.273438 -9.046875 8.082031 -8.675781 8.53125 -7.9375 C 8.976562 -7.207031 9.203125 -6.394531 9.203125 -5.5 L 9.203125 0 L 6.578125 0 L 6.578125 -5.046875 C 6.578125 -5.617188 6.445312 -6.070312 6.1875 -6.40625 C 5.9375 -6.75 5.5625 -6.921875 5.0625 -6.921875 C 4.519531 -6.921875 4.117188 -6.742188 3.859375 -6.390625 C 3.609375 -6.035156 3.484375 -5.585938 3.484375 -5.046875 L 3.484375 0 L 0.875 0 Z M 0.875 -8.859375" transform="translate(436.804 91.774)"/></g></g></g><g><g><g><path d="M 5.15625 3.78125 C 4.769531 3.78125 4.46875 3.757812 4.25 3.71875 C 4.03125 3.675781 3.863281 3.628906 3.75 3.578125 C 3.644531 3.535156 3.582031 3.507812 3.5625 3.5 L 3.5625 1.421875 C 3.6875 1.460938 3.875 1.503906 4.125 1.546875 C 4.375 1.585938 4.609375 1.609375 4.828125 1.609375 C 6.128906 1.609375 6.78125 0.875 6.78125 -0.59375 L 6.78125 -1.609375 L 6.65625 -1.609375 C 6.46875 -1.253906 6.164062 -0.90625 5.75 -0.5625 C 5.332031 -0.21875 4.757812 -0.046875 4.03125 -0.046875 C 2.976562 -0.046875 2.144531 -0.453125 1.53125 -1.265625 C 0.925781 -2.085938 0.625 -3.179688 0.625 -4.546875 C 0.625 -5.453125 0.757812 -6.242188 1.03125 -6.921875 C 1.3125 -7.609375 1.710938 -8.132812 2.234375 -8.5 C 2.753906 -8.875 3.363281 -9.0625 4.0625 -9.0625 C 4.789062 -9.0625 5.367188 -8.878906 5.796875 -8.515625 C 6.222656 -8.160156 6.507812 -7.8125 6.65625 -7.46875 L 6.78125 -7.46875 L 6.78125 -8.859375 L 9.40625 -8.859375 L 9.40625 -0.59375 C 9.40625 0.414062 9.117188 1.394531 8.546875 2.34375 C 7.984375 3.300781 6.851562 3.78125 5.15625 3.78125 Z M 5.046875 -2.140625 C 5.617188 -2.140625 6.050781 -2.382812 6.34375 -2.875 C 6.632812 -3.375 6.78125 -3.941406 6.78125 -4.578125 C 6.78125 -5.203125 6.632812 -5.753906 6.34375 -6.234375 C 6.0625 -6.710938 5.628906 -6.953125 5.046875 -6.953125 C 4.441406 -6.953125 3.992188 -6.710938 3.703125 -6.234375 C 3.421875 -5.765625 3.28125 -5.210938 3.28125 -4.578125 C 3.28125 -3.941406 3.421875 -3.375 3.703125 -2.875 C 3.992188 -2.382812 4.441406 -2.140625 5.046875 -2.140625 Z M 5.046875 -2.140625" transform="translate(446.822 91.774)"/></g></g></g><g><g><g><path d="M 10.390625 -9.765625 L 9.390625 -9.765625 L 9.390625 0 L 6.765625 0 L 6.765625 -1.421875 L 6.640625 -1.421875 C 6.441406 -1.046875 6.140625 -0.6875 5.734375 -0.34375 C 5.335938 -0.0078125 4.769531 0.15625 4.03125 0.15625 C 2.9375 0.15625 2.09375 -0.257812 1.5 -1.09375 C 0.90625 -1.925781 0.609375 -3.039062 0.609375 -4.4375 C 0.609375 -5.851562 0.90625 -6.972656 1.5 -7.796875 C 2.09375 -8.628906 2.941406 -9.046875 4.046875 -9.046875 C 4.796875 -9.046875 5.375 -8.878906 5.78125 -8.546875 C 6.195312 -8.222656 6.484375 -7.890625 6.640625 -7.546875 L 6.765625 -7.546875 L 6.765625 -9.765625 L 5.125 -9.765625 L 5.125 -11.4375 L 6.765625 -11.4375 L 6.765625 -12.578125 L 9.390625 -12.578125 L 9.390625 -11.4375 L 10.390625 -11.4375 Z M 5.015625 -1.90625 C 5.597656 -1.90625 6.035156 -2.15625 6.328125 -2.65625 C 6.628906 -3.164062 6.78125 -3.757812 6.78125 -4.4375 C 6.78125 -5.101562 6.632812 -5.679688 6.34375 -6.171875 C 6.050781 -6.671875 5.609375 -6.921875 5.015625 -6.921875 C 4.410156 -6.921875 3.960938 -6.675781 3.671875 -6.1875 C 3.390625 -5.695312 3.25 -5.113281 3.25 -4.4375 C 3.25 -3.757812 3.390625 -3.164062 3.671875 -2.65625 C 3.960938 -2.15625 4.410156 -1.90625 5.015625 -1.90625 Z M 5.015625 -1.90625" transform="translate(460.945 91.774)"/></g></g></g><g><g><g><path d="M 3.96875 0.15625 C 2.875 0.15625 2.023438 -0.257812 1.421875 -1.09375 C 0.828125 -1.925781 0.53125 -3.039062 0.53125 -4.4375 C 0.53125 -5.84375 0.835938 -6.960938 1.453125 -7.796875 C 2.066406 -8.628906 2.914062 -9.046875 4 -9.046875 C 4.75 -9.046875 5.320312 -8.878906 5.71875 -8.546875 C 6.125 -8.222656 6.40625 -7.890625 6.5625 -7.546875 L 6.703125 -7.546875 L 6.703125 -8.859375 L 9.328125 -8.859375 L 9.328125 0 L 6.703125 0 L 6.703125 -1.421875 L 6.5625 -1.421875 C 6.394531 -1.066406 6.109375 -0.710938 5.703125 -0.359375 C 5.296875 -0.015625 4.71875 0.15625 3.96875 0.15625 Z M 4.953125 -1.9375 C 5.546875 -1.9375 5.988281 -2.1875 6.28125 -2.6875 C 6.570312 -3.1875 6.71875 -3.773438 6.71875 -4.453125 C 6.71875 -5.117188 6.570312 -5.703125 6.28125 -6.203125 C 5.988281 -6.703125 5.546875 -6.953125 4.953125 -6.953125 C 4.335938 -6.953125 3.890625 -6.707031 3.609375 -6.21875 C 3.328125 -5.738281 3.1875 -5.15625 3.1875 -4.46875 C 3.1875 -3.78125 3.328125 -3.1875 3.609375 -2.6875 C 3.890625 -2.1875 4.335938 -1.9375 4.953125 -1.9375 Z M 5.09375 4.203125 C 4.707031 4.203125 4.390625 4.070312 4.140625 3.8125 C 3.890625 3.5625 3.765625 3.25 3.765625 2.875 C 3.765625 2.507812 3.890625 2.203125 4.140625 1.953125 C 4.390625 1.703125 4.707031 1.578125 5.09375 1.578125 C 5.457031 1.578125 5.765625 1.703125 6.015625 1.953125 C 6.273438 2.210938 6.40625 2.519531 6.40625 2.875 C 6.40625 3.25 6.273438 3.5625 6.015625 3.8125 C 5.765625 4.070312 5.457031 4.203125 5.09375 4.203125 Z M 5.09375 4.203125" transform="translate(471.465 91.774)"/></g></g></g><g><g><g><path d="M 4.46875 -6.828125 L 4.46875 -3.28125 C 4.46875 -2.894531 4.488281 -2.609375 4.53125 -2.421875 C 4.570312 -2.234375 4.679688 -2.082031 4.859375 -1.96875 C 5.046875 -1.863281 5.347656 -1.8125 5.765625 -1.8125 C 5.972656 -1.8125 6.191406 -1.832031 6.421875 -1.875 L 6.421875 -0.0625 C 6.304688 -0.0390625 6.082031 -0.0195312 5.75 0 C 5.414062 0.03125 5.078125 0.046875 4.734375 0.046875 C 3.867188 0.046875 3.222656 -0.078125 2.796875 -0.328125 C 2.378906 -0.585938 2.117188 -0.898438 2.015625 -1.265625 C 1.921875 -1.640625 1.875 -2.125 1.875 -2.71875 L 1.875 -6.828125 L 0.453125 -6.828125 L 0.453125 -8.859375 L 1.875 -8.859375 L 1.875 -11.71875 L 4.46875 -11.71875 L 4.46875 -8.859375 L 6.421875 -8.859375 L 6.421875 -6.828125 Z M 4.46875 -6.828125" transform="translate(481.785 91.774)"/></g></g></g><g><g><g><path d="M 5.375 1.265625 C 5.226562 1.671875 5.0625 2.039062 4.875 2.375 C 4.695312 2.707031 4.367188 3.035156 3.890625 3.359375 C 3.410156 3.691406 2.78125 3.859375 2 3.859375 C 1.664062 3.859375 1.378906 3.828125 1.140625 3.765625 C 0.898438 3.710938 0.75 3.679688 0.6875 3.671875 L 0.6875 1.859375 C 0.957031 1.898438 1.191406 1.921875 1.390625 1.921875 C 1.910156 1.921875 2.296875 1.800781 2.546875 1.5625 C 2.796875 1.332031 3.015625 0.972656 3.203125 0.484375 L 3.453125 -0.140625 L 0.296875 -8.859375 L 2.9375 -8.859375 L 4.671875 -3 L 4.78125 -3 L 6.5625 -8.859375 L 9.203125 -8.859375 Z M 5.375 1.265625" transform="translate(492.841 91.774)"/></g></g></g><g><g><g><path d="M 4.875 0.15625 C 3.9375 0.15625 3.144531 -0.0546875 2.5 -0.484375 C 1.863281 -0.921875 1.390625 -1.488281 1.078125 -2.1875 C 0.773438 -2.882812 0.625 -3.632812 0.625 -4.4375 C 0.625 -5.238281 0.773438 -5.988281 1.078125 -6.6875 C 1.390625 -7.382812 1.863281 -7.953125 2.5 -8.390625 C 3.144531 -8.828125 3.945312 -9.046875 4.90625 -9.046875 C 6.15625 -9.046875 7.148438 -8.648438 7.890625 -7.859375 C 8.628906 -7.078125 9 -5.9375 9 -4.4375 L 9 -3.71875 L 3.125 -3.71875 L 3.125 -3.578125 C 3.125 -3.117188 3.285156 -2.722656 3.609375 -2.390625 C 3.929688 -2.066406 4.335938 -1.90625 4.828125 -1.90625 C 5.203125 -1.90625 5.523438 -1.988281 5.796875 -2.15625 C 6.066406 -2.332031 6.253906 -2.566406 6.359375 -2.859375 L 8.921875 -2.859375 C 8.703125 -1.984375 8.242188 -1.257812 7.546875 -0.6875 C 6.847656 -0.125 5.957031 0.15625 4.875 0.15625 Z M 6.5 -5.390625 C 6.488281 -5.992188 6.332031 -6.441406 6.03125 -6.734375 C 5.738281 -7.023438 5.347656 -7.171875 4.859375 -7.171875 C 4.359375 -7.171875 3.957031 -7.015625 3.65625 -6.703125 C 3.363281 -6.390625 3.210938 -5.953125 3.203125 -5.390625 Z M 3.984375 -12.625 L 5.859375 -12.625 L 8.328125 -9.90625 L 5.984375 -9.90625 L 4.9375 -11.0625 L 4.875 -11.0625 L 3.875 -9.90625 L 1.546875 -9.90625 Z M 3.984375 -12.625" transform="translate(502.005 91.774)"/></g></g></g><g><g><g><path d="M 9.03125 0 L 6.40625 0 L 6.40625 -1.328125 L 6.28125 -1.328125 C 6.09375 -0.910156 5.789062 -0.554688 5.375 -0.265625 C 4.957031 0.0234375 4.457031 0.171875 3.875 0.171875 C 2.71875 0.171875 1.925781 -0.195312 1.5 -0.9375 C 1.082031 -1.675781 0.875 -2.5 0.875 -3.40625 L 0.875 -8.859375 L 3.46875 -8.859375 L 3.46875 -3.828125 C 3.46875 -3.273438 3.582031 -2.828125 3.8125 -2.484375 C 4.050781 -2.140625 4.414062 -1.96875 4.90625 -1.96875 C 5.414062 -1.96875 5.789062 -2.144531 6.03125 -2.5 C 6.28125 -2.851562 6.40625 -3.296875 6.40625 -3.828125 L 6.40625 -8.859375 L 9.03125 -8.859375 Z M 9.03125 0" transform="translate(511.62 91.774)"/></g></g></g><g><g><g><path d="M 4.890625 0.15625 C 3.941406 0.15625 3.144531 -0.0625 2.5 -0.5 C 1.863281 -0.9375 1.390625 -1.503906 1.078125 -2.203125 C 0.773438 -2.898438 0.625 -3.648438 0.625 -4.453125 C 0.625 -5.253906 0.773438 -6.003906 1.078125 -6.703125 C 1.390625 -7.398438 1.863281 -7.960938 2.5 -8.390625 C 3.144531 -8.828125 3.941406 -9.046875 4.890625 -9.046875 C 6.078125 -9.046875 7.019531 -8.703125 7.71875 -8.015625 C 8.414062 -7.335938 8.84375 -6.472656 9 -5.421875 L 6.453125 -5.421875 C 6.378906 -5.878906 6.210938 -6.25 5.953125 -6.53125 C 5.703125 -6.8125 5.359375 -6.953125 4.921875 -6.953125 C 4.296875 -6.953125 3.847656 -6.707031 3.578125 -6.21875 C 3.316406 -5.738281 3.1875 -5.148438 3.1875 -4.453125 C 3.1875 -3.753906 3.316406 -3.160156 3.578125 -2.671875 C 3.847656 -2.179688 4.296875 -1.9375 4.921875 -1.9375 C 5.359375 -1.9375 5.703125 -2.078125 5.953125 -2.359375 C 6.210938 -2.648438 6.378906 -3.019531 6.453125 -3.46875 L 9 -3.46875 C 8.84375 -2.414062 8.414062 -1.546875 7.71875 -0.859375 C 7.03125 -0.179688 6.085938 0.15625 4.890625 0.15625 Z M 4.890625 0.15625" transform="translate(525.324 91.774)"/></g></g></g><g><g><g><path d="M 3.96875 0.15625 C 2.875 0.15625 2.023438 -0.257812 1.421875 -1.09375 C 0.828125 -1.925781 0.53125 -3.039062 0.53125 -4.4375 C 0.53125 -5.84375 0.835938 -6.960938 1.453125 -7.796875 C 2.066406 -8.628906 2.914062 -9.046875 4 -9.046875 C 4.75 -9.046875 5.320312 -8.878906 5.71875 -8.546875 C 6.125 -8.222656 6.40625 -7.890625 6.5625 -7.546875 L 6.703125 -7.546875 L 6.703125 -8.859375 L 9.328125 -8.859375 L 9.328125 0 L 6.703125 0 L 6.703125 -1.421875 L 6.5625 -1.421875 C 6.394531 -1.066406 6.109375 -0.710938 5.703125 -0.359375 C 5.296875 -0.015625 4.71875 0.15625 3.96875 0.15625 Z M 4.953125 -1.9375 C 5.546875 -1.9375 5.988281 -2.1875 6.28125 -2.6875 C 6.570312 -3.1875 6.71875 -3.773438 6.71875 -4.453125 C 6.71875 -5.117188 6.570312 -5.703125 6.28125 -6.203125 C 5.988281 -6.703125 5.546875 -6.953125 4.953125 -6.953125 C 4.335938 -6.953125 3.890625 -6.707031 3.609375 -6.21875 C 3.328125 -5.738281 3.1875 -5.15625 3.1875 -4.46875 C 3.1875 -3.78125 3.328125 -3.1875 3.609375 -2.6875 C 3.890625 -2.1875 4.335938 -1.9375 4.953125 -1.9375 Z M 4.234375 -12.625 L 6.109375 -12.625 L 8.578125 -9.90625 L 6.234375 -9.90625 L 5.1875 -11.0625 L 5.125 -11.0625 L 4.125 -9.90625 L 1.796875 -9.90625 Z M 5.515625 -15.453125 L 8.078125 -15.453125 L 9.765625 -12.09375 L 7.703125 -12.078125 Z M 5.515625 -15.453125" transform="translate(534.907 91.774)"/></g></g></g><g><g><g><path d="M 9.03125 0 L 6.40625 0 L 6.40625 -1.328125 L 6.28125 -1.328125 C 6.09375 -0.910156 5.789062 -0.554688 5.375 -0.265625 C 4.957031 0.0234375 4.457031 0.171875 3.875 0.171875 C 2.71875 0.171875 1.925781 -0.195312 1.5 -0.9375 C 1.082031 -1.675781 0.875 -2.5 0.875 -3.40625 L 0.875 -8.859375 L 3.46875 -8.859375 L 3.46875 -3.828125 C 3.46875 -3.273438 3.582031 -2.828125 3.8125 -2.484375 C 4.050781 -2.140625 4.414062 -1.96875 4.90625 -1.96875 C 5.414062 -1.96875 5.789062 -2.144531 6.03125 -2.5 C 6.28125 -2.851562 6.40625 -3.296875 6.40625 -3.828125 L 6.40625 -8.859375 L 9.03125 -8.859375 Z M 9.03125 0" transform="translate(545.226 91.774)"/></g></g></g><g clip-path="url(#b)"><g clip-path="url(#c)"><path d="M 244.832031 80.382812 L 396.949219 80.382812 L 396.949219 89.203125 L 244.832031 89.203125 Z M 244.832031 80.382812" fill="#ffffff"/></g></g><g clip-path="url(#d)"><g clip-path="url(#e)"><path d="M 244.832031 80.382812 L 396.949219 80.382812 L 396.949219 89.203125 L 244.832031 89.203125 Z M 244.832031 80.382812" fill="#ffffff"/></g></g><g><g><g><path d="M 9.34375 -9.453125 L 6.265625 -9.453125 L 6.265625 0 L 3.671875 0 L 3.671875 -9.453125 L 0.59375 -9.453125 L 0.59375 -11.71875 L 9.34375 -11.71875 Z M 9.34375 -9.453125" transform="translate(134.375 387.38)"/></g></g></g><g><g><g><path d="M 0.9375 -2.21875 L 2.484375 -3.53125 C 2.660156 -3.675781 2.828125 -3.816406 2.984375 -3.953125 C 3.148438 -4.085938 3.3125 -4.21875 3.46875 -4.34375 C 4.21875 -4.945312 4.789062 -5.425781 5.1875 -5.78125 C 5.582031 -6.144531 5.910156 -6.53125 6.171875 -6.9375 C 6.429688 -7.34375 6.5625 -7.765625 6.5625 -8.203125 C 6.5625 -8.628906 6.429688 -8.992188 6.171875 -9.296875 C 5.921875 -9.597656 5.535156 -9.75 5.015625 -9.75 C 4.335938 -9.75 3.894531 -9.550781 3.6875 -9.15625 C 3.488281 -8.769531 3.390625 -8.367188 3.390625 -7.953125 L 3.390625 -7.734375 L 0.828125 -7.734375 C 0.828125 -8.628906 1 -9.394531 1.34375 -10.03125 C 1.695312 -10.675781 2.1875 -11.160156 2.8125 -11.484375 C 3.4375 -11.804688 4.148438 -11.96875 4.953125 -11.96875 C 5.796875 -11.96875 6.523438 -11.804688 7.140625 -11.484375 C 7.753906 -11.171875 8.222656 -10.738281 8.546875 -10.1875 C 8.867188 -9.644531 9.03125 -9.035156 9.03125 -8.359375 C 9.03125 -7.710938 8.894531 -7.125 8.625 -6.59375 C 8.351562 -6.070312 8.035156 -5.617188 7.671875 -5.234375 C 7.304688 -4.859375 6.832031 -4.429688 6.25 -3.953125 L 5.875 -3.65625 L 4.328125 -2.34375 L 4.328125 -2.265625 L 9.109375 -2.265625 L 9.109375 0 L 0.9375 0 Z M 0.9375 -2.21875" transform="translate(144.326 387.38)"/></g></g></g><g><g><g><path d="M 9.34375 -9.453125 L 6.265625 -9.453125 L 6.265625 0 L 3.671875 0 L 3.671875 -9.453125 L 0.59375 -9.453125 L 0.59375 -11.71875 L 9.34375 -11.71875 Z M 9.34375 -9.453125" transform="translate(223.976 387.38)"/></g></g></g><g><g><g><path d="M 4.984375 0.15625 C 3.617188 0.15625 2.5625 -0.1875 1.8125 -0.875 C 1.070312 -1.5625 0.632812 -2.441406 0.5 -3.515625 L 3.15625 -3.515625 C 3.257812 -3.078125 3.46875 -2.738281 3.78125 -2.5 C 4.101562 -2.257812 4.503906 -2.140625 4.984375 -2.140625 C 5.535156 -2.140625 5.96875 -2.28125 6.28125 -2.5625 C 6.59375 -2.851562 6.75 -3.222656 6.75 -3.671875 C 6.75 -4.128906 6.585938 -4.492188 6.265625 -4.765625 C 5.941406 -5.035156 5.523438 -5.171875 5.015625 -5.171875 L 3.984375 -5.171875 L 3.984375 -7.15625 L 5.0625 -7.15625 C 5.519531 -7.15625 5.882812 -7.273438 6.15625 -7.515625 C 6.425781 -7.753906 6.5625 -8.082031 6.5625 -8.5 C 6.5625 -8.914062 6.414062 -9.253906 6.125 -9.515625 C 5.832031 -9.773438 5.445312 -9.90625 4.96875 -9.90625 C 4.5 -9.90625 4.125 -9.78125 3.84375 -9.53125 C 3.570312 -9.289062 3.382812 -8.960938 3.28125 -8.546875 L 0.734375 -8.546875 C 0.890625 -9.546875 1.304688 -10.375 1.984375 -11.03125 C 2.660156 -11.695312 3.660156 -12.03125 4.984375 -12.03125 C 5.960938 -12.03125 6.757812 -11.851562 7.375 -11.5 C 8 -11.144531 8.445312 -10.703125 8.71875 -10.171875 C 9 -9.648438 9.140625 -9.125 9.140625 -8.59375 C 9.140625 -8.03125 9.007812 -7.566406 8.75 -7.203125 C 8.5 -6.847656 8.222656 -6.582031 7.921875 -6.40625 C 7.628906 -6.226562 7.453125 -6.140625 7.390625 -6.140625 L 7.390625 -6.046875 C 8.804688 -5.328125 9.332031 -5.0625 8.96875 -5.25 C 8.613281 -5.445312 8.578125 -5.347656 8.859375 -4.953125 C 9.140625 -4.566406 9.28125 -4.050781 9.28125 -3.40625 C 9.28125 -2.769531 9.125 -2.179688 8.8125 -1.640625 C 8.5 -1.109375 8.019531 -0.675781 7.375 -0.34375 C 6.738281 -0.0078125 5.941406 0.15625 4.984375 0.15625 Z M 4.984375 0.15625" transform="translate(233.927 387.38)"/></g></g></g><g><g><g><path d="M 9.34375 -9.453125 L 6.265625 -9.453125 L 6.265625 0 L 3.671875 0 L 3.671875 -9.453125 L 0.59375 -9.453125 L 0.59375 -11.71875 L 9.34375 -11.71875 Z M 9.34375 -9.453125" transform="translate(313.42 387.38)"/></g></g></g><g><g><g><path d="M 5.65625 -2.75 L 0.546875 -2.765625 L 0.546875 -4.65625 L 4.9375 -11.71875 L 8.21875 -11.71875 L 8.21875 -4.71875 L 9.59375 -4.71875 L 9.59375 -2.75 L 8.21875 -2.75 L 8.21875 0 L 5.65625 0 Z M 5.65625 -4.78125 L 5.65625 -8.640625 L 3.203125 -4.78125 Z M 5.65625 -4.78125" transform="translate(323.371 387.38)"/></g></g></g><g><g><g><path d="M 9.34375 -9.453125 L 6.265625 -9.453125 L 6.265625 0 L 3.671875 0 L 3.671875 -9.453125 L 0.59375 -9.453125 L 0.59375 -11.71875 L 9.34375 -11.71875 Z M 9.34375 -9.453125" transform="translate(403.223 387.38)"/></g></g></g><g><g><g><path d="M 5.0625 0.15625 C 4.1875 0.15625 3.4375 -0.015625 2.8125 -0.359375 C 2.1875 -0.710938 1.703125 -1.171875 1.359375 -1.734375 C 1.015625 -2.296875 0.800781 -2.898438 0.71875 -3.546875 L 3.34375 -3.546875 C 3.445312 -3.085938 3.648438 -2.738281 3.953125 -2.5 C 4.253906 -2.269531 4.613281 -2.15625 5.03125 -2.15625 C 5.5625 -2.15625 5.972656 -2.335938 6.265625 -2.703125 C 6.554688 -3.066406 6.703125 -3.53125 6.703125 -4.09375 C 6.703125 -4.632812 6.554688 -5.082031 6.265625 -5.4375 C 5.972656 -5.800781 5.539062 -5.984375 4.96875 -5.984375 C 4.5 -5.984375 4.144531 -5.875 3.90625 -5.65625 C 3.664062 -5.445312 3.503906 -5.210938 3.421875 -4.953125 L 0.859375 -4.984375 L 1.15625 -11.71875 L 8.625 -11.71875 L 8.625 -9.359375 L 3.28125 -9.359375 L 3.171875 -6.765625 L 3.265625 -6.765625 C 3.429688 -7.015625 3.703125 -7.25 4.078125 -7.46875 C 4.453125 -7.695312 4.984375 -7.8125 5.671875 -7.8125 C 6.804688 -7.8125 7.695312 -7.46875 8.34375 -6.78125 C 8.988281 -6.101562 9.3125 -5.195312 9.3125 -4.0625 C 9.3125 -3.34375 9.15625 -2.65625 8.84375 -2 C 8.53125 -1.351562 8.050781 -0.832031 7.40625 -0.4375 C 6.769531 -0.0390625 5.988281 0.15625 5.0625 0.15625 Z M 5.0625 0.15625" transform="translate(413.174 387.38)"/></g></g></g><g><g><g><path d="M 9.34375 -9.453125 L 6.265625 -9.453125 L 6.265625 0 L 3.671875 0 L 3.671875 -9.453125 L 0.59375 -9.453125 L 0.59375 -11.71875 L 9.34375 -11.71875 Z M 9.34375 -9.453125" transform="translate(492.865 387.38)"/></g></g></g><g><g><g><path d="M 5.03125 0.15625 C 4.226562 0.15625 3.492188 0 2.828125 -0.3125 C 2.171875 -0.632812 1.640625 -1.113281 1.234375 -1.75 C 0.835938 -2.394531 0.640625 -3.179688 0.640625 -4.109375 C 0.640625 -4.984375 0.796875 -5.785156 1.109375 -6.515625 C 1.429688 -7.253906 1.863281 -8.046875 2.40625 -8.890625 L 4.234375 -11.71875 L 6.765625 -11.71875 L 3.5 -6.796875 L 3.546875 -6.75 L 3.796875 -6.96875 C 4.054688 -7.21875 4.335938 -7.410156 4.640625 -7.546875 C 4.941406 -7.679688 5.332031 -7.75 5.8125 -7.75 C 6.539062 -7.75 7.164062 -7.578125 7.6875 -7.234375 C 8.207031 -6.898438 8.601562 -6.4375 8.875 -5.84375 C 9.15625 -5.257812 9.296875 -4.613281 9.296875 -3.90625 C 9.296875 -3.03125 9.101562 -2.285156 8.71875 -1.671875 C 8.332031 -1.054688 7.816406 -0.597656 7.171875 -0.296875 C 6.523438 0.00390625 5.8125 0.15625 5.03125 0.15625 Z M 4.921875 -1.90625 C 5.535156 -1.90625 5.992188 -2.101562 6.296875 -2.5 C 6.609375 -2.90625 6.765625 -3.375 6.765625 -3.90625 C 6.765625 -4.425781 6.609375 -4.882812 6.296875 -5.28125 C 5.992188 -5.6875 5.535156 -5.890625 4.921875 -5.890625 C 4.328125 -5.890625 3.875 -5.691406 3.5625 -5.296875 C 3.257812 -4.898438 3.109375 -4.4375 3.109375 -3.90625 C 3.109375 -3.382812 3.257812 -2.921875 3.5625 -2.515625 C 3.875 -2.109375 4.328125 -1.90625 4.921875 -1.90625 Z M 4.921875 -1.90625" transform="translate(502.816 387.38)"/></g></g></g><g><g><g><path d="M 9.34375 -9.453125 L 6.265625 -9.453125 L 6.265625 0 L 3.671875 0 L 3.671875 -9.453125 L 0.59375 -9.453125 L 0.59375 -11.71875 L 9.34375 -11.71875 Z M 9.34375 -9.453125" transform="translate(583.003 387.38)"/></g></g></g><g><g><g><path d="M 1.5 -0.203125 L 6.015625 -9.265625 L 6.015625 -9.359375 L 0.296875 -9.359375 L 0.296875 -11.71875 L 8.4375 -11.71875 L 8.4375 -9.0625 L 4.25 0 L 1.5 0 Z M 1.5 -0.203125" transform="translate(592.954 387.38)"/></g></g></g><g><g><g><path d="M 6.015625 0.15625 C 4.890625 0.15625 3.921875 -0.117188 3.109375 -0.671875 C 2.296875 -1.222656 1.679688 -1.960938 1.265625 -2.890625 C 0.847656 -3.816406 0.640625 -4.820312 0.640625 -5.90625 C 0.640625 -6.988281 0.847656 -7.988281 1.265625 -8.90625 C 1.679688 -9.832031 2.296875 -10.570312 3.109375 -11.125 C 3.921875 -11.675781 4.890625 -11.953125 6.015625 -11.953125 C 7.390625 -11.953125 8.507812 -11.550781 9.375 -10.75 C 10.25 -9.945312 10.816406 -8.910156 11.078125 -7.640625 L 8.546875 -7.640625 C 8.410156 -8.222656 8.117188 -8.707031 7.671875 -9.09375 C 7.234375 -9.488281 6.691406 -9.6875 6.046875 -9.6875 C 5.148438 -9.6875 4.472656 -9.335938 4.015625 -8.640625 C 3.566406 -7.941406 3.34375 -7.03125 3.34375 -5.90625 C 3.34375 -4.769531 3.566406 -3.851562 4.015625 -3.15625 C 4.472656 -2.46875 5.148438 -2.125 6.046875 -2.125 C 6.679688 -2.125 7.210938 -2.3125 7.640625 -2.6875 C 8.078125 -3.070312 8.367188 -3.523438 8.515625 -4.046875 L 11 -4.046875 C 10.757812 -2.828125 10.207031 -1.820312 9.34375 -1.03125 C 8.476562 -0.238281 7.367188 0.15625 6.015625 0.15625 Z M 6.015625 0.15625" transform="translate(670.353 387.38)"/></g></g></g><g><g><g><path d="M 0.875 -11.71875 L 3.90625 -11.71875 L 8.1875 -4 L 8.234375 -4 L 8.234375 -11.71875 L 10.828125 -11.71875 L 10.828125 0.015625 L 7.75 0.015625 L 3.5 -7.421875 L 3.453125 -7.421875 L 3.453125 0.015625 L 0.875 0.015625 Z M 0.875 -11.71875" transform="translate(681.996 387.38)"/></g></g></g><g clip-path="url(#f)"><g mask="url(#g)"><g><g clip-path="url(#h)" transform="translate(108 111)"><g clip-path="url(#i)"><path d="M 0.203125 0.777344 L 610.132812 0.777344 L 610.132812 251.363281 L 0.203125 251.363281 Z M 0.203125 0.777344"/></g></g></g></g></g><g clip-path="url(#j)"><g mask="url(#k)"><g><g clip-path="url(#l)" transform="translate(108 174)"><g clip-path="url(#m)"><path d="M 0.203125 -62.222656 L 610.132812 -62.222656 L 610.132812 188.363281 L 0.203125 188.363281 Z M 0.203125 -62.222656"/></g></g></g></g></g><g clip-path="url(#n)"><g mask="url(#o)"><g><g clip-path="url(#p)" transform="translate(108 236)"><g clip-path="url(#q)"><path d="M 0.203125 -124.222656 L 610.132812 -124.222656 L 610.132812 126.363281 L 0.203125 126.363281 Z M 0.203125 -124.222656"/></g></g></g></g></g><g clip-path="url(#r)"><g mask="url(#s)"><g><g clip-path="url(#t)" transform="translate(108 299)"><g clip-path="url(#u)"><path d="M 0.203125 -187.222656 L 610.132812 -187.222656 L 610.132812 63.363281 L 0.203125 63.363281 Z M 0.203125 -187.222656"/></g></g></g></g></g><g clip-path="url(#v)"><g mask="url(#w)"><g><g clip-path="url(#x)" transform="translate(108 361)"><g clip-path="url(#y)"><path d="M 0.203125 -249.222656 L 610.132812 -249.222656 L 610.132812 1.363281 L 0.203125 1.363281 Z M 0.203125 -249.222656"/></g></g></g></g></g><g><g><g><path d="M 5.65625 -2.75 L 0.546875 -2.765625 L 0.546875 -4.65625 L 4.9375 -11.71875 L 8.21875 -11.71875 L 8.21875 -4.71875 L 9.59375 -4.71875 L 9.59375 -2.75 L 8.21875 -2.75 L 8.21875 0 L 5.65625 0 Z M 5.65625 -4.78125 L 5.65625 -8.640625 L 3.203125 -4.78125 Z M 5.65625 -4.78125" transform="translate(75.11 119.126)"/></g></g></g><g><g><g><path d="M 5.21875 0.25 C 3.65625 0.25 2.492188 -0.25 1.734375 -1.25 C 0.984375 -2.257812 0.609375 -3.597656 0.609375 -5.265625 L 0.609375 -6.5 C 0.609375 -8.15625 0.984375 -9.472656 1.734375 -10.453125 C 2.492188 -11.441406 3.65625 -11.9375 5.21875 -11.9375 C 6.789062 -11.9375 7.953125 -11.441406 8.703125 -10.453125 C 9.453125 -9.472656 9.828125 -8.15625 9.828125 -6.5 L 9.828125 -5.265625 C 9.828125 -3.597656 9.453125 -2.257812 8.703125 -1.25 C 7.953125 -0.25 6.789062 0.25 5.21875 0.25 Z M 5.21875 -2 C 5.820312 -2 6.253906 -2.257812 6.515625 -2.78125 C 6.773438 -3.300781 6.90625 -4.078125 6.90625 -5.109375 L 6.90625 -6.65625 C 6.90625 -7.664062 6.773438 -8.425781 6.515625 -8.9375 C 6.253906 -9.445312 5.820312 -9.703125 5.21875 -9.703125 C 4.625 -9.703125 4.191406 -9.445312 3.921875 -8.9375 C 3.660156 -8.425781 3.53125 -7.664062 3.53125 -6.65625 L 3.53125 -5.109375 C 3.53125 -4.085938 3.660156 -3.3125 3.921875 -2.78125 C 4.191406 -2.257812 4.625 -2 5.21875 -2 Z M 5.21875 -2" transform="translate(85.48 119.126)"/></g></g></g><g><g><g><path d="M 4.984375 0.15625 C 3.617188 0.15625 2.5625 -0.1875 1.8125 -0.875 C 1.070312 -1.5625 0.632812 -2.441406 0.5 -3.515625 L 3.15625 -3.515625 C 3.257812 -3.078125 3.46875 -2.738281 3.78125 -2.5 C 4.101562 -2.257812 4.503906 -2.140625 4.984375 -2.140625 C 5.535156 -2.140625 5.96875 -2.28125 6.28125 -2.5625 C 6.59375 -2.851562 6.75 -3.222656 6.75 -3.671875 C 6.75 -4.128906 6.585938 -4.492188 6.265625 -4.765625 C 5.941406 -5.035156 5.523438 -5.171875 5.015625 -5.171875 L 3.984375 -5.171875 L 3.984375 -7.15625 L 5.0625 -7.15625 C 5.519531 -7.15625 5.882812 -7.273438 6.15625 -7.515625 C 6.425781 -7.753906 6.5625 -8.082031 6.5625 -8.5 C 6.5625 -8.914062 6.414062 -9.253906 6.125 -9.515625 C 5.832031 -9.773438 5.445312 -9.90625 4.96875 -9.90625 C 4.5 -9.90625 4.125 -9.78125 3.84375 -9.53125 C 3.570312 -9.289062 3.382812 -8.960938 3.28125 -8.546875 L 0.734375 -8.546875 C 0.890625 -9.546875 1.304688 -10.375 1.984375 -11.03125 C 2.660156 -11.695312 3.660156 -12.03125 4.984375 -12.03125 C 5.960938 -12.03125 6.757812 -11.851562 7.375 -11.5 C 8 -11.144531 8.445312 -10.703125 8.71875 -10.171875 C 9 -9.648438 9.140625 -9.125 9.140625 -8.59375 C 9.140625 -8.03125 9.007812 -7.566406 8.75 -7.203125 C 8.5 -6.847656 8.222656 -6.582031 7.921875 -6.40625 C 7.628906 -6.226562 7.453125 -6.140625 7.390625 -6.140625 L 7.390625 -6.046875 C 8.804688 -5.328125 9.332031 -5.0625 8.96875 -5.25 C 8.613281 -5.445312 8.578125 -5.347656 8.859375 -4.953125 C 9.140625 -4.566406 9.28125 -4.050781 9.28125 -3.40625 C 9.28125 -2.769531 9.125 -2.179688 8.8125 -1.640625 C 8.5 -1.109375 8.019531 -0.675781 7.375 -0.34375 C 6.738281 -0.0078125 5.941406 0.15625 4.984375 0.15625 Z M 4.984375 0.15625" transform="translate(75.44 181.666)"/></g></g></g><g><g><g><path d="M 5.21875 0.25 C 3.65625 0.25 2.492188 -0.25 1.734375 -1.25 C 0.984375 -2.257812 0.609375 -3.597656 0.609375 -5.265625 L 0.609375 -6.5 C 0.609375 -8.15625 0.984375 -9.472656 1.734375 -10.453125 C 2.492188 -11.441406 3.65625 -11.9375 5.21875 -11.9375 C 6.789062 -11.9375 7.953125 -11.441406 8.703125 -10.453125 C 9.453125 -9.472656 9.828125 -8.15625 9.828125 -6.5 L 9.828125 -5.265625 C 9.828125 -3.597656 9.453125 -2.257812 8.703125 -1.25 C 7.953125 -0.25 6.789062 0.25 5.21875 0.25 Z M 5.21875 -2 C 5.820312 -2 6.253906 -2.257812 6.515625 -2.78125 C 6.773438 -3.300781 6.90625 -4.078125 6.90625 -5.109375 L 6.90625 -6.65625 C 6.90625 -7.664062 6.773438 -8.425781 6.515625 -8.9375 C 6.253906 -9.445312 5.820312 -9.703125 5.21875 -9.703125 C 4.625 -9.703125 4.191406 -9.445312 3.921875 -8.9375 C 3.660156 -8.425781 3.53125 -7.664062 3.53125 -6.65625 L 3.53125 -5.109375 C 3.53125 -4.085938 3.660156 -3.3125 3.921875 -2.78125 C 4.191406 -2.257812 4.625 -2 5.21875 -2 Z M 5.21875 -2" transform="translate(85.475 181.666)"/></g></g></g><g><g><g><path d="M 0.9375 -2.21875 L 2.484375 -3.53125 C 2.660156 -3.675781 2.828125 -3.816406 2.984375 -3.953125 C 3.148438 -4.085938 3.3125 -4.21875 3.46875 -4.34375 C 4.21875 -4.945312 4.789062 -5.425781 5.1875 -5.78125 C 5.582031 -6.144531 5.910156 -6.53125 6.171875 -6.9375 C 6.429688 -7.34375 6.5625 -7.765625 6.5625 -8.203125 C 6.5625 -8.628906 6.429688 -8.992188 6.171875 -9.296875 C 5.921875 -9.597656 5.535156 -9.75 5.015625 -9.75 C 4.335938 -9.75 3.894531 -9.550781 3.6875 -9.15625 C 3.488281 -8.769531 3.390625 -8.367188 3.390625 -7.953125 L 3.390625 -7.734375 L 0.828125 -7.734375 C 0.828125 -8.628906 1 -9.394531 1.34375 -10.03125 C 1.695312 -10.675781 2.1875 -11.160156 2.8125 -11.484375 C 3.4375 -11.804688 4.148438 -11.96875 4.953125 -11.96875 C 5.796875 -11.96875 6.523438 -11.804688 7.140625 -11.484375 C 7.753906 -11.171875 8.222656 -10.738281 8.546875 -10.1875 C 8.867188 -9.644531 9.03125 -9.035156 9.03125 -8.359375 C 9.03125 -7.710938 8.894531 -7.125 8.625 -6.59375 C 8.351562 -6.070312 8.035156 -5.617188 7.671875 -5.234375 C 7.304688 -4.859375 6.832031 -4.429688 6.25 -3.953125 L 5.875 -3.65625 L 4.328125 -2.34375 L 4.328125 -2.265625 L 9.109375 -2.265625 L 9.109375 0 L 0.9375 0 Z M 0.9375 -2.21875" transform="translate(75.46 244.206)"/></g></g></g><g><g><g><path d="M 5.21875 0.25 C 3.65625 0.25 2.492188 -0.25 1.734375 -1.25 C 0.984375 -2.257812 0.609375 -3.597656 0.609375 -5.265625 L 0.609375 -6.5 C 0.609375 -8.15625 0.984375 -9.472656 1.734375 -10.453125 C 2.492188 -11.441406 3.65625 -11.9375 5.21875 -11.9375 C 6.789062 -11.9375 7.953125 -11.441406 8.703125 -10.453125 C 9.453125 -9.472656 9.828125 -8.15625 9.828125 -6.5 L 9.828125 -5.265625 C 9.828125 -3.597656 9.453125 -2.257812 8.703125 -1.25 C 7.953125 -0.25 6.789062 0.25 5.21875 0.25 Z M 5.21875 -2 C 5.820312 -2 6.253906 -2.257812 6.515625 -2.78125 C 6.773438 -3.300781 6.90625 -4.078125 6.90625 -5.109375 L 6.90625 -6.65625 C 6.90625 -7.664062 6.773438 -8.425781 6.515625 -8.9375 C 6.253906 -9.445312 5.820312 -9.703125 5.21875 -9.703125 C 4.625 -9.703125 4.191406 -9.445312 3.921875 -8.9375 C 3.660156 -8.425781 3.53125 -7.664062 3.53125 -6.65625 L 3.53125 -5.109375 C 3.53125 -4.085938 3.660156 -3.3125 3.921875 -2.78125 C 4.191406 -2.257812 4.625 -2 5.21875 -2 Z M 5.21875 -2" transform="translate(85.477 244.206)"/></g></g></g><g><g><g><path d="M 8.53125 -2.265625 L 8.53125 0 L 1.15625 0 L 1.15625 -2.265625 L 3.734375 -2.265625 L 3.734375 -8.625 L 3.671875 -8.625 L 1.140625 -6.359375 L 1.140625 -9.46875 L 3.671875 -11.71875 L 6.234375 -11.71875 L 6.234375 -2.265625 Z M 8.53125 -2.265625" transform="translate(76.534 306.747)"/></g></g></g><g><g><g><path d="M 5.21875 0.25 C 3.65625 0.25 2.492188 -0.25 1.734375 -1.25 C 0.984375 -2.257812 0.609375 -3.597656 0.609375 -5.265625 L 0.609375 -6.5 C 0.609375 -8.15625 0.984375 -9.472656 1.734375 -10.453125 C 2.492188 -11.441406 3.65625 -11.9375 5.21875 -11.9375 C 6.789062 -11.9375 7.953125 -11.441406 8.703125 -10.453125 C 9.453125 -9.472656 9.828125 -8.15625 9.828125 -6.5 L 9.828125 -5.265625 C 9.828125 -3.597656 9.453125 -2.257812 8.703125 -1.25 C 7.953125 -0.25 6.789062 0.25 5.21875 0.25 Z M 5.21875 -2 C 5.820312 -2 6.253906 -2.257812 6.515625 -2.78125 C 6.773438 -3.300781 6.90625 -4.078125 6.90625 -5.109375 L 6.90625 -6.65625 C 6.90625 -7.664062 6.773438 -8.425781 6.515625 -8.9375 C 6.253906 -9.445312 5.820312 -9.703125 5.21875 -9.703125 C 4.625 -9.703125 4.191406 -9.445312 3.921875 -8.9375 C 3.660156 -8.425781 3.53125 -7.664062 3.53125 -6.65625 L 3.53125 -5.109375 C 3.53125 -4.085938 3.660156 -3.3125 3.921875 -2.78125 C 4.191406 -2.257812 4.625 -2 5.21875 -2 Z M 5.21875 -2" transform="translate(85.48 306.747)"/></g></g></g><g><g><g><path d="M 5.21875 0.25 C 3.65625 0.25 2.492188 -0.25 1.734375 -1.25 C 0.984375 -2.257812 0.609375 -3.597656 0.609375 -5.265625 L 0.609375 -6.5 C 0.609375 -8.15625 0.984375 -9.472656 1.734375 -10.453125 C 2.492188 -11.441406 3.65625 -11.9375 5.21875 -11.9375 C 6.789062 -11.9375 7.953125 -11.441406 8.703125 -10.453125 C 9.453125 -9.472656 9.828125 -8.15625 9.828125 -6.5 L 9.828125 -5.265625 C 9.828125 -3.597656 9.453125 -2.257812 8.703125 -1.25 C 7.953125 -0.25 6.789062 0.25 5.21875 0.25 Z M 5.21875 -2 C 5.820312 -2 6.253906 -2.257812 6.515625 -2.78125 C 6.773438 -3.300781 6.90625 -4.078125 6.90625 -5.109375 L 6.90625 -6.65625 C 6.90625 -7.664062 6.773438 -8.425781 6.515625 -8.9375 C 6.253906 -9.445312 5.820312 -9.703125 5.21875 -9.703125 C 4.625 -9.703125 4.191406 -9.445312 3.921875 -8.9375 C 3.660156 -8.425781 3.53125 -7.664062 3.53125 -6.65625 L 3.53125 -5.109375 C 3.53125 -4.085938 3.660156 -3.3125 3.921875 -2.78125 C 4.191406 -2.257812 4.625 -2 5.21875 -2 Z M 5.21875 -2" transform="translate(85.48 369.287)"/></g></g></g><g clip-path="url(#z)"><g clip-path="url(#A)"><path d="M 108.203125 161.808594 L 718.132812 161.808594 L 718.132812 362.425781 L 108.203125 362.425781 Z M 108.203125 161.808594" fill="#ffffff"/></g></g><g clip-path="url(#B)"><g clip-path="url(#C)"><path d="M 108.203125 161.808594 L 718.132812 161.808594 L 718.132812 362.425781 L 108.203125 362.425781 Z M 108.203125 161.808594" fill="#ffffff"/></g></g><g clip-path="url(#D)"><g clip-path="url(#E)"><path d="M 108.203125 161.808594 L 718.132812 161.808594 L 718.132812 362.425781 L 108.203125 362.425781 Z M 108.203125 161.808594" fill="#ffffff"/></g></g><g clip-path="url(#F)"><g clip-path="url(#G)"><path d="M 108.203125 161.808594 L 718.132812 161.808594 L 718.132812 362.425781 L 108.203125 362.425781 Z M 108.203125 161.808594" fill="#ffffff"/></g></g><g clip-path="url(#H)"><g clip-path="url(#I)"><path d="M 108.203125 161.808594 L 718.132812 161.808594 L 718.132812 362.425781 L 108.203125 362.425781 Z M 108.203125 161.808594" fill="#ffffff"/></g></g><g clip-path="url(#J)"><g clip-path="url(#K)"><path d="M 108.203125 161.808594 L 718.132812 161.808594 L 718.132812 362.425781 L 108.203125 362.425781 Z M 108.203125 161.808594" fill="#ffffff"/></g></g><g clip-path="url(#L)"><g clip-path="url(#M)"><path d="M 108.203125 161.808594 L 718.132812 161.808594 L 718.132812 362.425781 L 108.203125 362.425781 Z M 108.203125 161.808594" fill="#ffffff"/></g></g><g clip-path="url(#N)"><path d="M 108.203125 161.808594 L 718.132812 161.808594 L 718.132812 362.425781 L 108.203125 362.425781 Z M 108.203125 161.808594" fill="#ffffff"/></g><g clip-path="url(#O)"><g clip-path="url(#P)"><path d="M 108.203125 161.808594 L 718.132812 161.808594 L 718.132812 362.425781 L 108.203125 362.425781 Z M 108.203125 161.808594" fill="#ffffff"/></g></g><g clip-path="url(#Q)"><path d="M 108.203125 161.808594 L 718.132812 161.808594 L 718.132812 362.425781 L 108.203125 362.425781 Z M 108.203125 161.808594" fill="#ffffff"/></g><g clip-path="url(#R)"><path d="M 108.203125 161.808594 L 718.132812 161.808594 L 718.132812 362.425781 L 108.203125 362.425781 Z M 108.203125 161.808594" fill="#ffffff"/></g><g clip-path="url(#S)"><g clip-path="url(#T)"><path d="M 108.203125 161.808594 L 718.132812 161.808594 L 718.132812 362.425781 L 108.203125 362.425781 Z M 108.203125 161.808594" fill="#ffffff"/></g></g><g clip-path="url(#U)"><g clip-path="url(#V)"><path d="M 108.203125 161.808594 L 718.132812 161.808594 L 718.132812 362.425781 L 108.203125 362.425781 Z M 108.203125 161.808594" fill="#ffffff"/></g></g><g clip-path="url(#W)"><g clip-path="url(#X)"><path d="M 108.203125 161.808594 L 718.132812 161.808594 L 718.132812 362.425781 L 108.203125 362.425781 Z M 108.203125 161.808594" fill="#ffffff"/></g></g></svg>